<svg xmlns="http://www.w3.org/2000/svg" width="52" height="52" viewBox="0 0 40 40">
  <!-- Plectrum cursor hover · hotspot 7 7 -->
  <defs>
    <linearGradient id="pg" x1="0" y1="0" x2="1" y2="1">
      <stop offset="0%"   stop-color="#ede9fe"/>
      <stop offset="55%"  stop-color="#a78bfa"/>
      <stop offset="100%" stop-color="#7c3aed"/>
    </linearGradient>
    <filter id="ps" x="-60%" y="-60%" width="220%" height="220%">
      <feDropShadow dx="0" dy="2" stdDeviation="2.5" flood-color="rgba(109,40,217,0.65)"/>
    </filter>
  </defs>
  <path d="M 7 7 C 8 4, 28 5, 33 15 C 37 22, 22 37, 15 33 C 5 28, 4 8, 7 7 Z"
    fill="url(#pg)" stroke="#4c1d95" stroke-width="0.7" filter="url(#ps)"/>
  <!-- ♫ double eighth note -->
  <ellipse cx="16" cy="22" rx="1.9" ry="1.4" fill="rgba(255,255,255,0.60)" transform="rotate(-15 16 22)"/>
  <ellipse cx="19" cy="19.5" rx="1.9" ry="1.4" fill="rgba(255,255,255,0.60)" transform="rotate(-15 19 19.5)"/>
  <line x1="17.6" y1="21.2" x2="17.6" y2="15.5" stroke="rgba(255,255,255,0.60)" stroke-width="1.1" stroke-linecap="round"/>
  <line x1="20.6" y1="18.7" x2="20.6" y2="13.0" stroke="rgba(255,255,255,0.60)" stroke-width="1.1" stroke-linecap="round"/>
  <path d="M17.6 15.5 L20.6 13.0 L20.6 14.7 L17.6 17.2 Z" fill="rgba(255,255,255,0.60)"/>
</svg>
